<svg xmlns:rdf="http://www.w3.org/1999/02/22-rdf-syntax-ns#" xmlns="http://www.w3.org/2000/svg" version="1.1" xmlns:cc="http://creativecommons.org/ns#" xmlns:dc="http://purl.org/dc/elements/1.1/" viewBox="0 0 512 1030">
	<path style="stroke:none;fill:rgba(255,255,255,0.5);" d="m267,25.03c-136,0-246,16-246,35.9v595c0,14,54.1,26.1,133,32v146c0,8.82,16,15.9,35.8,15.9h5.75v186l137-135v-51.1h9.75c19.9,0,35.8-7.08,35.8-15.9v-146c79.4-5.94,133-18,133-32v-595c0-19.9-110-35.9-246-35.9z"/>
	<path style="stroke:none;fill:#000;" d="m267,8.03c-136,0-246,16-246,35.9v595c0,14,54.1,26.1,133,32v146c0,8.82,16,15.9,35.8,15.9h5.75v186l137-135v-51.1h9.75c19.9,0,35.8-7.08,35.8-15.9v-146c79.4-5.94,133-18,133-32v-595c0-19.9-110-35.9-246-35.9z"/>
	</svg>