<svg xmlns="http://www.w3.org/2000/svg" width="95" height="25"><path d="M3.91 0c-.5 0-.9.385-1 .875l-2.879 18.725c-.1.3.2.7.5.7h3.589c.5 0 .91-.4.91-1l.88-5c.1-.4.5-.8.9-.8h2.41c4.78 0 7.48-2.4 8.28-6.91.3-2.07 0-3.63-1-4.71-1-1.235-2.9-1.88-5.3-1.88h-7.29zm52.09 0c-.6 0-1 .385-1.1.875l-3 18.725c0 .3.3.7.7.7h3.7c.4 0 .6-.3.7-.6l.9-5.4c0-.4.4-.8.9-.8h2.4c5.1 0 7.4-2.3 8.1-6.91.3-2.05 0-3.61-1-4.71-1-1.235-3-1.88-5.1-1.88h-7.2zm34.3 0s-1 .2-1 .5l-4 19.1c-.1.3.6.7 1 .7h4c.4 0 .9-.4 1-1l3-18.612c0-.371-1-.688-1-.688h-3zm-82.27 4h.5c1.3 0 2.57 0 3.17.75.3.56.5 1.16.3 2.16-.4 2.5-2.28 2.5-4.28 2.5h-1.1l.79-4.88c.1-.21.32-.53.62-.53zm51.97 0h.4c1.4 0 2.6 0 3.2.75.5.56.6 1.16.5 2.16-.5 2.5-2.5 2.5-4.4 2.5h-1.1l.8-4.88c0-.21.3-.53.6-.53zm-35.6 2.41c-3.9 0-7.1 2.92-7.9 6.99-.3 2.1.2 4 1.4 5.4 1.1 1.3 2.6 1.8 4.4 1.8 3.1 0 4.8-2 4.8-2l-.1 1c-.1.3.2.6.6.7h3.1c.5 0 1-.4 1-1l1.9-11.89c.1-.3-.2-.6-.5-.6h-3.6c-.3 0-.5.2-.6.5l-.1 1-.3-.5c-.8-1-2.5-1.4-4.1-1.4zm51.9.12c-3.9 0-7.1 2.9-7.9 6.97-.3 2.1.2 4 1.4 5.4 1.1 1.3 2.6 1.8 4.4 1.8 3.1 0 4.8-2 4.8-2l-.1 1c-.1.3.2.6.6.7h3.1c.5 0 1-.4 1-1l1.9-11.87c.1-.3-.2-.59-.5-.59h-3.6c-.3 0-.5.2-.6.5l-.1 1-.3-.5c-.8-1-2.5-1.41-4.1-1.41zm-40.4.28c-.4 0-.6.39-.5.69l3.8 11.4-3.6 5.1c-.3.5 0 1 .5 1h3.5c.4 0 .6-.2.8-.4l11.7-16.91c.2-.4 0-.88-.5-.88h-3.5c-.3 0-.7.1-.9.38l-4.8 7.11-2-6.8c-.2-.5-.5-.69-1-.69h-3.5zm-10.7 3.29c1 0 1.8.3 2.3.9.5.7.8 1.5.6 2.5-.3 2-1.9 3.4-3.9 3.4-1 0-1.8-.3-2.3-1-.6-.6-.8-1.5-.6-2.4.3-1.9 1.9-3.4 3.9-3.4zm51.9.1c1 0 1.8.3 2.3.9.5.7.8 1.5.6 2.5-.3 2-1.9 3.4-3.9 3.4-1 0-1.8-.3-2.3-1-.6-.6-.8-1.5-.6-2.4.3-1.9 1.9-3.4 3.9-3.4z"/></svg>